<svg width="246" height="246" xmlns="http://www.w3.org/2000/svg" xmlns:xlink="http://www.w3.org/1999/xlink" overflow="hidden"><defs><clipPath id="clip0"><rect x="918" y="399" width="246" height="246"/></clipPath></defs><g clip-path="url(#clip0)" transform="translate(-918 -399)"><path d="M1123.17 400C1123.17 400 1123.17 400 962.556 400 938.056 400 919 419.056 919 440.833 919 604.167 919 604.167 919 604.167 919 625.944 938.056 645 962.556 645 962.556 645 962.556 645 1123.17 645 1147.67 645 1164 625.944 1164 604.167 1164 604.167 1164 604.167 1164 440.833 1164 419.056 1147.67 400 1123.17 400ZM1017 596C970.722 596 970.722 596 970.722 596 970.722 582.389 970.722 582.389 970.722 582.389 997.944 582.389 997.944 582.389 997.944 582.389 997.944 462.611 997.944 462.611 997.944 462.611 970.722 462.611 970.722 462.611 970.722 462.611 970.722 449 970.722 449 970.722 449 1017 449 1017 449 1017 449L1017 596ZM1120.44 462.611C1093.22 462.611 1093.22 462.611 1093.22 462.611 1093.22 582.389 1093.22 582.389 1093.22 582.389 1120.44 582.389 1120.44 582.389 1120.44 582.389 1120.44 596 1120.44 596 1120.44 596 1074.17 596 1074.17 596 1074.17 596 1074.17 449 1074.17 449 1074.17 449 1120.44 449 1120.44 449 1120.44 449L1120.44 462.611Z" fill="#102235" fill-rule="evenodd"/></g></svg>